<svg xmlns="http://www.w3.org/2000/svg" viewBox="0 0 64 64" fill="none">
  <rect width="64" height="64" rx="16" fill="#0F172A"/>
  <path d="M31.5 18c-4.5-5.5-12.5-8.7-18-7 0 7 1.9 18.7 10 23.5-3.5 2-6.1 5.7-6.1 10.7 6.7.8 12.4-1.4 15.2-7.4" fill="#7DD3FC"/>
  <path d="M32.5 18c4.5-5.5 12.5-8.7 18-7 0 7-1.9 18.7-10 23.5 3.5 2 6.1 5.7 6.1 10.7-6.7.8-12.4-1.4-15.2-7.4" fill="#A78BFA"/>
  <path d="M31.7 20.5c-2.9 2.2-5 6.8-5.2 13.2-.2 7.4 1.7 12.8 5.5 16.8 3.7-4 5.6-9.4 5.4-16.8-.1-6.4-2.3-11-5.1-13.2h-.6Z" fill="#F8FAFC"/>
  <path d="M31 21c-.6 5.8-.7 11.7-.2 17.5.4 4.7 1.2 9 1.2 9m1-26.5c.6 5.8.7 11.7.2 17.5-.4 4.7-1.2 9-1.2 9" stroke="#0F172A" stroke-linecap="round" stroke-width="1.6"/>
  <circle cx="32" cy="18.5" r="2.2" fill="#F59E0B"/>
</svg>
